<?xml version="1.0" encoding="iso-8859-1"?>
<!-- Generator: Adobe Illustrator 19.0.0, SVG Export Plug-In . SVG Version: 6.00 Build 0)  -->
<svg xmlns="http://www.w3.org/2000/svg" xmlns:xlink="http://www.w3.org/1999/xlink" version="1.1" id="Capa_1" x="0px" y="0px" viewBox="0 0 490 490" style="enable-background:new 0 0 490 490;" xml:space="preserve" width="512px" height="512px">
<path id="XMLID_530_" d="M460,170h15c8.284,0,15-6.716,15-15V75c0-6.826-4.608-12.791-11.214-14.514L249.114,0.572  c-1.288-0.367-2.648-0.565-4.053-0.571c-0.008,0-0.019,0-0.027,0c-0.012,0-0.023,0-0.034,0s-0.021,0.001-0.034,0  c-0.009,0-0.019,0-0.027,0c-1.404,0.006-2.765,0.205-4.053,0.571L11.214,60.486C4.609,62.209,0,68.174,0,75v80  c0,8.284,6.716,15,15,15h15v170H15c-8.284,0-15,6.716-15,15v120c0,8.284,6.716,15,15,15h460c8.284,0,15-6.716,15-15V355  c0-8.284-6.716-15-15-15h-15V170z M370,63.111V140h-88.787l79.352-79.351L370,63.111z M430,170v78.787L351.213,170H430z M260,34.415  l66.915,17.456L260,118.787V34.415z M230,34.415v84.372l-66.915-66.916L230,34.415z M120,63.111l9.436-2.462L208.787,140H120V63.111  z M138.787,170L60,248.787V170H138.787z M30,86.589l60-15.652V140H30V86.589z M60,460H30v-90h30V460z M400,355v105H90V355  c0-8.284-6.716-15-15-15H60v-48.787L181.213,170h127.574L430,291.214V340h-15C406.716,340,400,346.716,400,355z M460,460h-30v-90h30  V460z M445,140h-45V70.937l60,15.652V140H445z" fill="#29591f"/>
<g>
</g>
<g>
</g>
<g>
</g>
<g>
</g>
<g>
</g>
<g>
</g>
<g>
</g>
<g>
</g>
<g>
</g>
<g>
</g>
<g>
</g>
<g>
</g>
<g>
</g>
<g>
</g>
<g>
</g>
</svg>
